<svg xmlns="http://www.w3.org/2000/svg" xmlns:xlink="http://www.w3.org/1999/xlink" width="500" zoomAndPan="magnify" viewBox="0 0 375 374.999991" height="500" preserveAspectRatio="xMidYMid meet" version="1.0"><defs><g/><clipPath id="129c8661ed"><path d="M 73 152 L 202 152 L 202 234 L 73 234 Z M 73 152 " clip-rule="nonzero"/></clipPath><clipPath id="92f22425b3"><path d="M 75 150 L 204.902344 225 L 186.527344 256.828125 L 56.625 181.828125 Z M 75 150 " clip-rule="nonzero"/></clipPath><clipPath id="ff1981e2c4"><path d="M 56.71875 181.664062 L 186.621094 256.664062 L 204.996094 224.835938 L 75.09375 149.835938 Z M 56.71875 181.664062 " clip-rule="nonzero"/></clipPath><clipPath id="95a94032ef"><path d="M 56.71875 181.664062 L 186.621094 256.664062 L 204.996094 224.835938 L 75.09375 149.835938 Z M 56.71875 181.664062 " clip-rule="nonzero"/></clipPath><clipPath id="5148c447ee"><path d="M 164 35 L 294 35 L 294 116 L 164 116 Z M 164 35 " clip-rule="nonzero"/></clipPath><clipPath id="2f0e6ac65e"><path d="M 180 11.992188 L 309.902344 86.992188 L 291.527344 118.816406 L 161.625 43.816406 Z M 180 11.992188 " clip-rule="nonzero"/></clipPath><clipPath id="f492b175c1"><path d="M 309.902344 86.992188 L 180 11.992188 L 161.625 43.816406 L 291.527344 118.816406 Z M 309.902344 86.992188 " clip-rule="nonzero"/></clipPath><clipPath id="fb77000730"><path d="M 309.902344 86.992188 L 180 11.992188 L 161.625 43.816406 L 291.527344 118.816406 Z M 309.902344 86.992188 " clip-rule="nonzero"/></clipPath></defs><path fill="#000000" d="M 75.757812 371 C 88.660156 355.226562 85.511719 338.601562 83.578125 322.144531 C 82.015625 308.871094 87.363281 298.679688 97.863281 290.199219 C 90.84375 276.460938 91.152344 263.316406 102.703125 250.980469 C 71.84375 228.390625 52.199219 199.746094 47.140625 162.050781 C 43.410156 134.277344 48.851562 108.175781 60.902344 83.339844 C 85.109375 33.460938 143.230469 0.132812 195.570312 5.679688 C 246.476562 11.074219 297.695312 46.003906 307.164062 82.609375 C 297.675781 71.367188 289.496094 60.128906 279.785156 50.421875 C 237.347656 8.007812 170.070312 0.015625 118.660156 30.71875 C 66.386719 61.929688 41.5625 123.480469 59.074219 181.519531 C 72.253906 225.207031 103.328125 251.46875 146.636719 262.078125 C 198.097656 274.6875 246 267.210938 285.722656 229.078125 C 304.597656 210.957031 315.917969 188.546875 318.773438 162.207031 C 319.039062 159.742188 319.644531 157.308594 320.261719 154.898438 C 320.4375 154.203125 321.191406 153.652344 321.691406 153.046875 C 328.308594 182.460938 305.5 222.917969 264.285156 254.089844 C 267.542969 256.394531 270.582031 258.542969 276.964844 263.058594 C 259.515625 266.789062 245.375 270.886719 230.949219 272.695312 C 192.394531 277.53125 153.839844 277.070312 115.394531 270.484375 C 111.222656 269.769531 106.445312 272.601562 101.945312 273.785156 C 105.808594 276.835938 109.425781 282.121094 113.574219 282.578125 C 143.152344 285.851562 172.800781 289.390625 202.503906 290.277344 C 220.570312 290.820312 238.875 287.410156 256.863281 284.484375 C 263.589844 283.390625 269.71875 278.640625 275.363281 275.925781 C 271.019531 284.757812 275.269531 293.789062 283.097656 302.789062 C 286.117188 306.261719 285.863281 312.996094 286.199219 318.300781 C 287.335938 336.273438 288.0625 354.273438 288.964844 372.621094 C 274.675781 374.988281 263.742188 364.328125 261.199219 343.539062 C 260.101562 334.582031 259.140625 325.238281 255.804688 317.007812 C 250.125 302.988281 215.578125 291.402344 203.425781 299.796875 C 199.121094 302.773438 198.199219 311.21875 196.601562 317.390625 C 194.4375 325.738281 193.710938 334.488281 191.132812 342.679688 C 190.097656 345.964844 185.789062 348.21875 182.96875 350.941406 C 180.199219 348.066406 176.035156 345.628906 174.949219 342.214844 C 172.71875 335.222656 171.53125 327.75 170.988281 320.398438 C 169.367188 298.316406 162.8125 294.359375 141.242188 299.390625 C 119.671875 304.421875 110.105469 316.929688 108.476562 338.632812 C 106.734375 361.84375 100.285156 369.78125 85.570312 372.078125 C 83.367188 372.417969 80.988281 371.621094 75.757812 371 Z M 75.757812 371 " fill-opacity="1" fill-rule="nonzero"/><path fill="#000000" d="M 318.21875 97.238281 C 333.304688 110.960938 333.269531 113.378906 318.417969 125.582031 C 304.675781 113.429688 304.625 111.582031 318.21875 97.238281 Z M 318.21875 97.238281 " fill-opacity="1" fill-rule="nonzero"/><path fill="#000000" d="M 283.785156 129.636719 C 278.5625 124.757812 273.121094 120.621094 280.152344 114.160156 C 281.746094 112.695312 286.832031 112.457031 288.238281 113.808594 C 294.628906 119.960938 291.03125 124.734375 283.785156 129.636719 Z M 283.785156 129.636719 " fill-opacity="1" fill-rule="nonzero"/><path fill="#000000" d="M 310.019531 142.753906 C 310.019531 148.148438 310.019531 153.539062 310.019531 161.511719 C 298.964844 154.132812 297.089844 148.839844 310.019531 142.753906 Z M 310.019531 142.753906 " fill-opacity="1" fill-rule="nonzero"/><g clip-path="url(#129c8661ed)"><g clip-path="url(#92f22425b3)"><g clip-path="url(#ff1981e2c4)"><g clip-path="url(#95a94032ef)"><path fill="#000000" d="M 199.375 221.601562 C 193.101562 223.5 186.707031 224.773438 180.1875 225.417969 C 173.636719 226.066406 167.089844 226.0625 160.542969 225.40625 C 153.941406 224.738281 147.472656 223.433594 141.132812 221.488281 C 134.792969 219.539062 128.707031 216.992188 122.871094 213.84375 C 118.441406 211.453125 114.210938 208.746094 110.179688 205.726562 C 106.148438 202.703125 102.367188 199.402344 98.828125 195.816406 C 95.285156 192.230469 92.03125 188.402344 89.058594 184.332031 C 86.085938 180.261719 83.429688 175.992188 81.089844 171.523438 C 77.933594 165.492188 75.386719 159.210938 73.457031 152.675781 C 75.027344 159.347656 77.226562 165.800781 80.058594 172.035156 C 82.90625 178.304688 86.34375 184.230469 90.367188 189.8125 C 94.429688 195.4375 99 200.605469 104.082031 205.324219 C 109.164062 210.039062 114.660156 214.210938 120.566406 217.839844 C 125.046875 220.597656 129.710938 223.003906 134.550781 225.066406 C 139.394531 227.128906 144.363281 228.820312 149.457031 230.144531 C 154.550781 231.46875 159.71875 232.410156 164.957031 232.964844 C 170.191406 233.523438 175.445312 233.6875 180.710938 233.464844 C 187.8125 233.164062 194.820312 232.179688 201.734375 230.503906 Z M 199.375 221.601562 " fill-opacity="1" fill-rule="nonzero"/></g></g></g></g><g fill="#000000" fill-opacity="1"><g transform="translate(111.899997, 203.249987)"><g><path d="M 37.796875 0 L 37.796875 -25.203125 L 113.40625 -25.203125 L 113.40625 -50.40625 L 63 -50.40625 L 63 -75.59375 L 138.59375 -75.59375 L 138.59375 0 Z M 12.59375 -25.203125 L 12.59375 -100.796875 L 37.796875 -100.796875 L 37.796875 -25.203125 Z M 37.796875 -100.796875 L 37.796875 -126 L 138.59375 -126 L 138.59375 -100.796875 Z M 37.796875 -100.796875 "/></g></g></g><g clip-path="url(#5148c447ee)"><g clip-path="url(#2f0e6ac65e)"><g clip-path="url(#f492b175c1)"><g clip-path="url(#fb77000730)"><path fill="#000000" d="M 167.246094 47.050781 C 173.523438 45.15625 179.917969 43.882812 186.433594 43.234375 C 192.984375 42.589844 199.535156 42.59375 206.078125 43.246094 C 212.679688 43.914062 219.152344 45.222656 225.488281 47.167969 C 231.828125 49.113281 237.917969 51.660156 243.75 54.8125 C 248.183594 57.203125 252.414062 59.910156 256.441406 62.929688 C 260.472656 65.949219 264.257812 69.253906 267.796875 72.839844 C 271.335938 76.421875 274.589844 80.25 277.5625 84.320312 C 280.535156 88.394531 283.191406 92.660156 285.53125 97.128906 C 288.6875 103.160156 291.234375 109.445312 293.167969 115.980469 C 291.59375 109.308594 289.394531 102.855469 286.5625 96.617188 C 283.714844 90.347656 280.28125 84.421875 276.253906 78.84375 C 272.195312 73.21875 267.621094 68.046875 262.539062 63.332031 C 257.457031 58.613281 251.964844 54.441406 246.058594 50.8125 C 241.574219 48.058594 236.910156 45.648438 232.070312 43.585938 C 227.230469 41.527344 222.261719 39.832031 217.164062 38.507812 C 212.070312 37.183594 206.902344 36.246094 201.667969 35.6875 C 196.429688 35.132812 191.179688 34.964844 185.914062 35.1875 C 178.8125 35.488281 171.804688 36.476562 164.886719 38.148438 Z M 167.246094 47.050781 " fill-opacity="1" fill-rule="nonzero"/></g></g></g></g></svg>